<?xml version="1.0" encoding="UTF-8"?>
<svg width="132px" height="34px" viewBox="0 0 132 34" version="1.1" xmlns="http://www.w3.org/2000/svg" xmlns:xlink="http://www.w3.org/1999/xlink">
    <g id="Page-1" stroke="none" stroke-width="1" fill="none" fill-rule="evenodd">
        <g id="06" transform="translate(-375.000000, -13.000000)">
            <g id="header">
                <g id="Group-20" transform="translate(375.000000, 13.000000)">
                    <polygon id="Fill-1" fill="#171530" points="44.8222 23.1871257 44.8222 12.9026114 41.0540286 12.9026114 41.0540286 11.2094114 50.4419143 11.2094114 50.4419143 12.9026114 46.6815143 12.9026114 46.6815143 23.1871257"></polygon>
                    <g id="Group-19" transform="translate(0.000000, 0.370843)">
                        <path d="M56.3593229,18.2920971 C56.3593229,16.3332114 55.4792086,15.1878971 53.9356086,15.1878971 C52.38278,15.1878971 51.5118943,16.3332114 51.5118943,18.2920971 C51.5118943,20.2679829 52.38278,21.40504 53.9356086,21.40504 C55.4792086,21.40504 56.3593229,20.2597257 56.3593229,18.2920971 M49.6690943,18.2920971 C49.6690943,15.3787829 51.2957514,13.6025257 53.9356086,13.6025257 C56.5667229,13.6025257 58.19338,15.3787829 58.19338,18.2920971 C58.19338,21.2224114 56.57498,22.9908971 53.9356086,22.9908971 C51.2874943,22.9908971 49.6690943,21.2224114 49.6690943,18.2920971" id="Fill-2" fill="#171530"></path>
                        <path d="M59.5700886,13.77646 L61.28806,13.77646 L61.28806,15.2292314 L61.4211457,15.2292314 C61.8194314,14.20826 62.73306,13.6025743 63.9361743,13.6025743 C65.1728029,13.6025743 66.0281457,14.2412886 66.4264314,15.2292314 L66.5672886,15.2292314 C67.0243457,14.2412886 68.0613457,13.6025743 69.3149743,13.6025743 C71.14126,13.6025743 72.2040029,14.7061171 72.2040029,16.5906886 L72.2040029,22.8160886 L70.4190029,22.8160886 L70.4190029,17.0555171 C70.4190029,15.8349171 69.8385743,15.2374886 68.6675171,15.2374886 C67.5139457,15.2374886 66.75866,16.0675743 66.75866,17.1298314 L66.75866,22.8160886 L65.0066886,22.8160886 L65.0066886,16.8816314 C65.0066886,15.8601743 64.3266886,15.2374886 63.2639457,15.2374886 C62.1764314,15.2374886 61.3546029,16.12586 61.3546029,17.2876886 L61.3546029,22.8160886 L59.5700886,22.8160886 L59.5700886,13.77646 Z" id="Fill-4" fill="#171530"></path>
                        <path d="M80.1882714,18.2920971 C80.1882714,16.3332114 79.3081571,15.1878971 77.7645571,15.1878971 C76.2122143,15.1878971 75.3408429,16.3332114 75.3408429,18.2920971 C75.3408429,20.2679829 76.2122143,21.40504 77.7645571,21.40504 C79.3081571,21.40504 80.1882714,20.2597257 80.1882714,18.2920971 M73.4980429,18.2920971 C73.4980429,15.3787829 75.1247,13.6025257 77.7645571,13.6025257 C80.3961571,13.6025257 82.0228143,15.3787829 82.0228143,18.2920971 C82.0228143,21.2224114 80.4039286,22.9908971 77.7645571,22.9908971 C75.1169286,22.9908971 73.4980429,21.2224114 73.4980429,18.2920971" id="Fill-6" fill="#171530"></path>
                        <path d="M88.1551029,21.23912 C89.8322743,21.23912 90.72016,20.5586343 90.72016,19.2880057 C90.72016,18.0348629 89.7992457,17.3796343 88.0472743,17.3796343 L85.4657029,17.3796343 L85.4657029,21.23912 L88.1551029,21.23912 Z M85.4657029,15.9098629 L87.6742457,15.9098629 C89.3174171,15.9098629 90.1722743,15.3036914 90.1722743,14.1666343 C90.1722743,13.0630914 89.3674457,12.4151486 87.9889886,12.4151486 L85.4657029,12.4151486 L85.4657029,15.9098629 Z M83.6063886,22.8162343 L83.6063886,10.83852 L88.4207886,10.83852 C90.6706171,10.83852 92.0238171,11.9833486 92.0238171,13.8266343 C92.0238171,15.0797771 91.1019314,16.20032 89.9235886,16.3994629 L89.9235886,16.5408057 C91.5419886,16.70692 92.6212457,17.8604914 92.6212457,19.4210914 C92.6212457,21.5300629 91.0854171,22.8162343 88.5291029,22.8162343 L83.6063886,22.8162343 Z" id="Fill-8" fill="#171530"></path>
                        <path d="M94.0311286,13.77646 L95.7491,13.77646 L95.7491,15.1626886 L95.8821857,15.1626886 C96.1396143,14.2743171 97.1435857,13.6273457 98.3229,13.6273457 C98.5885857,13.6273457 98.9285857,13.6521171 99.1199571,13.7021457 L99.1199571,15.4618886 C98.9698714,15.41186 98.4385,15.35406 98.1237571,15.35406 C96.7705571,15.35406 95.8156429,16.2089171 95.8156429,17.47906 L95.8156429,22.8160886 L94.0311286,22.8160886 L94.0311286,13.77646 Z" id="Fill-10" fill="#171530"></path>
                        <path d="M100.105714,22.8159429 L101.881971,22.8159429 L101.881971,13.7763143 L100.105714,13.7763143 L100.105714,22.8159429 Z M99.8400286,11.1039143 C99.8400286,10.4812286 100.330114,10.0086286 100.994086,10.0086286 C101.658543,10.0086286 102.147657,10.4812286 102.147657,11.1039143 C102.147657,11.7178571 101.658543,12.1914286 100.994086,12.1914286 C100.330114,12.1914286 99.8400286,11.7178571 99.8400286,11.1039143 Z" id="Fill-12" fill="#171530"></path>
                        <path d="M105.134751,18.2920971 C105.134751,20.2096971 106.039151,21.3637543 107.550694,21.3637543 C109.052523,21.3637543 109.98218,20.1931829 109.98218,18.30084 C109.98218,16.4167543 109.044751,15.2291829 107.550694,15.2291829 C106.047894,15.2291829 105.134751,16.3914971 105.134751,18.2920971 M103.291951,18.2920971 C103.291951,15.4365829 104.761237,13.6272971 107.044094,13.6272971 C108.281209,13.6272971 109.326466,14.2164686 109.816551,15.2126686 L109.949151,15.2126686 L109.949151,10.2486686 L111.734151,10.2486686 L111.734151,22.81604 L110.023466,22.81604 L110.023466,21.3885257 L109.882609,21.3885257 C109.343466,22.3759829 108.28898,22.96564 107.044094,22.96564 C104.744237,22.96564 103.291951,21.1558686 103.291951,18.2920971" id="Fill-14" fill="#171530"></path>
                        <path d="M119.8755,18.1844143 C119.8755,16.3833857 118.945843,15.2293286 117.427014,15.2293286 C115.891186,15.2293286 115.028071,16.3833857 115.028071,18.1844143 C115.028071,19.9854429 115.891186,21.1395 117.427014,21.1395 C118.954586,21.1395 119.8755,19.9941857 119.8755,18.1844143 M113.542271,23.7210714 L115.368557,23.7210714 C115.517671,24.3767857 116.273443,24.7998429 117.477043,24.7998429 C118.962843,24.7998429 119.842471,24.0945857 119.842471,22.8992429 L119.842471,21.1647571 L119.709386,21.1647571 C119.161986,22.1434714 118.165786,22.6835857 116.920414,22.6835857 C114.613271,22.6835857 113.185757,20.8990714 113.185757,18.1926714 C113.185757,15.4367286 114.6293,13.6274429 116.937414,13.6274429 C118.1823,13.6274429 119.269814,14.2413857 119.775929,15.2210714 L119.917271,15.2210714 L119.917271,13.7765571 L121.626986,13.7765571 L121.626986,22.8909857 C121.626986,24.9577 120.0081,26.2696143 117.451786,26.2696143 C115.1937,26.2696143 113.733157,25.2569 113.542271,23.7210714" id="Fill-15" fill="#171530"></path>
                        <path d="M124.82182,17.4620114 L129.386563,17.4620114 C129.345277,16.0427543 128.482163,15.12184 127.161991,15.12184 C125.842791,15.12184 124.921391,16.0514971 124.82182,17.4620114 Z M131.097249,20.3758114 C130.69022,21.9946971 129.245706,22.9908971 127.179477,22.9908971 C124.589163,22.9908971 123.003791,21.2141543 123.003791,18.3251257 C123.003791,15.4365829 124.622677,13.6025257 127.170734,13.6025257 C129.685763,13.6025257 131.205077,15.3209829 131.205077,18.1594971 L131.205077,18.7821829 L124.82182,18.7821829 L124.82182,18.8817543 C124.87962,20.4671257 125.80102,21.4715829 127.228534,21.4715829 C128.308277,21.4715829 129.046563,21.0810686 129.378791,20.3758114 L131.097249,20.3758114 Z" id="Fill-16" fill="#171530"></path>
                        <path d="M24.7300457,31.4528657 C28.6390743,29.3064943 31.47856,25.7661229 32.7249029,21.4845514 C33.9712457,17.2024943 33.4758171,12.6916657 31.3294457,8.78263714 C29.1830743,4.87360857 25.6431886,2.03460857 21.3611314,0.78778 C17.07956,-0.458562857 12.5687314,0.0368657143 8.65970286,2.18323714 C5.30681714,4.02409429 2.66841714,6.98646571 1.23070286,10.5234371 C-0.186125714,14.0098943 -0.386725714,17.9072657 0.665331429,21.4986371 C0.783845714,21.9037229 1.20884571,22.1354086 1.61344571,22.0168943 C2.01804571,21.89838 2.25070286,21.4738657 2.13218857,21.06878 C1.17630286,17.8072086 1.35941714,14.2668371 2.64656,11.0990086 C3.95264571,7.88552286 6.34867429,5.19515143 9.39507429,3.52283714 C12.9461314,1.57318 17.0441029,1.12292286 20.9341886,2.25560857 C24.8237886,3.38780857 28.0397029,5.96695143 29.9898457,9.51849429 C34.01496,16.84938 31.32556,26.0876657 23.9946743,30.11278 C20.7986743,31.8676657 17.0785886,32.4136086 13.5192743,31.6490943 C13.1059314,31.56118 12.6998743,31.8234657 12.61196,32.2358371 C12.5230743,32.6486943 12.7858457,33.0552371 13.1987029,33.1431514 C14.3551886,33.3913514 15.5262457,33.5142371 16.6939029,33.5142371 C19.48336,33.5142371 22.25096,32.8143229 24.7300457,31.4528657 M16.8323314,29.3108657 C9.94393143,29.3108657 4.33976,23.7066943 4.33976,16.8178086 C4.33976,9.92940857 9.94393143,4.32475143 16.8323314,4.32475143 C20.9701314,4.32475143 24.8325314,6.36912286 27.1649314,9.79340857 C27.4024457,10.1421514 27.3121029,10.6176657 26.96336,10.85518 C26.6146171,11.0926943 26.1391029,11.0023514 25.9015886,10.6536086 C23.8543029,7.64752286 20.4640171,5.85329429 16.8323314,5.85329429 C10.7866457,5.85329429 5.86781714,10.7721229 5.86781714,16.8178086 C5.86781714,22.86398 10.7866457,27.7828086 16.8323314,27.7828086 C19.3444457,27.7828086 21.7992457,26.9114371 23.7445314,25.3304371 C25.6626171,23.7708086 27.0104743,21.5904371 27.5399029,19.1914943 C27.6307314,18.7791229 28.0387314,18.5192657 28.4506171,18.6100943 C28.8629886,18.7009229 29.1228457,19.1089229 29.0320171,19.5208086 C28.42876,22.2548943 26.8934171,24.7398086 24.7086743,26.5160657 C22.4918743,28.3185514 19.6946457,29.3108657 16.8323314,29.3108657" id="Fill-17" fill="#4B8AFF"></path>
                        <path d="M21.7963314,18.8603343 C21.5583314,18.9977914 21.2848743,19.0181914 21.0415314,18.9385343 C20.8326743,18.8700486 20.6456743,18.7262771 20.5266743,18.5203343 C20.4076743,18.3143914 20.37756,18.0817343 20.4227314,17.8655914 C20.4300171,17.8315914 20.4382743,17.7985629 20.4494457,17.7665057 C20.5179314,17.5561914 20.6607314,17.3706486 20.8666743,17.2511629 C21.0726171,17.1321629 21.30576,17.1015629 21.5223886,17.1477057 C21.7720457,17.1996771 21.9988743,17.3536486 22.1363314,17.5916486 C22.3927886,18.03462 22.2397886,18.6043629 21.7963314,18.8603343 M19.2220457,18.55822 L16.9396743,19.8759629 C16.40296,19.3853914 15.6471886,19.1935343 14.9399886,19.3727629 L13.6198171,17.0865057 C14.1439029,16.5478486 14.35276,15.7682771 14.1677029,15.0401914 L16.4345314,13.7307057 C16.9649314,14.2309914 17.7182743,14.4330486 18.4269314,14.2645057 L19.7563314,16.5653343 C19.2560457,17.0957343 19.0539886,17.8495629 19.2220457,18.55822 M16.38936,21.6245343 C16.3456457,21.89022 16.1882743,22.1340486 15.9381314,22.2783057 C15.4937029,22.5342771 14.9249314,22.3822486 14.6684743,21.9383057 C14.53976,21.7143914 14.5135314,21.4569629 14.5791029,21.2252771 C14.6422457,20.9984486 14.7889314,20.7963914 15.0084743,20.66962 C15.2022743,20.55742 15.4189029,20.5239057 15.6238743,20.5579057 C15.6569029,20.5632486 15.6894457,20.5705343 15.7219886,20.5797629 C15.9488171,20.6419343 16.15136,20.7900771 16.2781314,21.00962 C16.3898457,21.2029343 16.4228743,21.4200486 16.38936,21.6245343 M17.0159314,11.9651343 C17.0688743,11.7154771 17.2228457,11.4876771 17.46036,11.3507057 C17.9033314,11.0947343 18.4730743,11.2467629 18.7295314,11.6907057 C18.8669886,11.9287057 18.8869029,12.2021629 18.8077314,12.4445343 C18.7382743,12.6553343 18.5949886,12.8403914 18.3890457,12.9598771 C18.1835886,13.0788771 17.9509314,13.1094771 17.7343029,13.0643057 C17.7003029,13.0575057 17.66776,13.0477914 17.6357029,13.0380771 C17.4249029,12.9681343 17.23936,12.8253343 17.12036,12.6193914 C17.00136,12.4139343 16.9702743,12.1812771 17.0159314,11.9651343 M12.98256,15.7240771 C12.9728457,15.7843057 12.9573029,15.8440486 12.93496,15.9003914 C12.8621029,16.0951629 12.7246457,16.26662 12.5308457,16.3778486 C12.3117886,16.50462 12.0626171,16.5313343 11.8343314,16.4725629 C11.6016743,16.41282 11.3908743,16.2622486 11.26216,16.0373629 C11.0057029,15.5943914 11.1587029,15.0251343 11.60216,14.7686771 C11.82656,14.6389914 12.0835029,14.6137343 12.3147029,14.67882 C12.5415314,14.7419629 12.74456,14.8891343 12.8708457,15.1086771 C12.98256,15.3024771 13.01656,15.5191057 12.98256,15.7240771 M23.2087886,16.9713914 C22.7187029,16.1228486 21.73756,15.7318486 20.8287886,15.9465343 L19.4998743,13.6457057 C20.1410171,12.9661914 20.29256,11.9204486 19.8024743,11.07142 C19.20456,10.0358771 17.8766171,9.68033429 16.8410743,10.2777629 C15.9920457,10.7683343 15.6000743,11.7494771 15.8157314,12.6577629 L13.5328743,13.9755057 C12.8538457,13.3533057 11.8217029,13.2114771 10.9819029,13.6957343 C9.94684571,14.2941343 9.59130286,15.6225629 10.1892171,16.65762 C10.6734743,17.4959629 11.6385886,17.8889057 12.5376457,17.6907343 L13.8757886,20.0071057 C13.2540743,20.6875914 13.1112743,21.7187629 13.5960171,22.5580771 C14.1939314,23.5931343 15.5218743,23.9491629 16.5574171,23.3512486 C17.4156743,22.85582 17.80716,21.8571914 17.5745029,20.9401629 L19.8418171,19.6316486 C20.52036,20.27182 21.5661029,20.4233629 22.4151314,19.9332771 C23.4501886,19.3358486 23.8071886,18.00742 23.2087886,16.9713914" id="Fill-18" fill="#4B8AFF"></path>
                    </g>
                </g>
            </g>
        </g>
    </g>
</svg>