<?xml version="1.0" encoding="UTF-8"?>
<svg width="150px" height="150px" viewBox="0 0 150 150" version="1.1" xmlns="http://www.w3.org/2000/svg" xmlns:xlink="http://www.w3.org/1999/xlink">
    <!-- Generator: Sketch 61.2 (89653) - https://sketch.com -->
    <title>Group 6</title>
    <desc>Created with Sketch.</desc>
    <defs>
        <polygon id="path-1" points="0 0.0431917955 149.999395 0.0431917955 149.999395 149.999531 0 149.999531"></polygon>
    </defs>
    <g id="Page-1" stroke="none" stroke-width="1" fill="none" fill-rule="evenodd">
        <g id="01" transform="translate(-405.000000, -294.000000)">
            <g id="Group-6" transform="translate(405.000000, 294.000000)">
                <g id="Group-3">
                    <mask id="mask-2" fill="white">
                        <use xlink:href="#path-1"></use>
                    </mask>
                    <g id="Clip-2"></g>
                    <path d="M111.069375,140.742425 C128.626406,131.108099 141.37875,115.213335 146.975625,95.9868567 C152.574844,76.7627212 150.348281,56.5100183 140.708438,38.9611122 C131.068594,21.4075201 115.170938,8.66171912 95.938125,3.06434439 C76.71,-2.53068737 56.4482813,-0.304858151 38.89125,9.32946789 C23.8326563,17.5954947 11.985,30.8942385 5.52796875,46.7772872 C-0.8353125,62.4283811 -1.73765625,79.9280847 2.98734375,96.0524601 C3.519375,97.8682682 5.42953125,98.9108934 7.2459375,98.3790374 C9.06703125,97.8448384 10.1076563,95.9399972 9.57328125,94.1241891 C5.281875,79.4805759 6.10453125,63.5811263 11.8889063,49.3569061 C17.7529688,34.9335328 28.513125,22.8554806 42.1959375,15.3438927 C58.1451563,6.59052646 76.5482813,4.56853634 94.0209375,9.65279887 C111.49125,14.7370614 125.935781,26.3184023 134.692031,42.2623684 C152.771719,75.1765251 140.692031,116.65661 107.767031,134.730343 C93.4139063,142.607435 76.7053125,145.058191 60.7185938,141.625728 C58.8646875,141.229764 57.0389063,142.408282 56.6428125,144.261578 C56.244375,146.112531 57.4232813,147.937711 59.2771875,148.333674 C64.4709375,149.448932 69.7303125,149.999531 74.9779688,149.999531 C87.5053125,149.999531 99.9342188,146.855255 111.069375,140.742425 M75.5990625,131.126843 C44.6615625,131.126843 19.4896875,105.965601 19.4896875,75.0359464 C19.4896875,44.1086351 44.6615625,18.9473931 75.5990625,18.9473931 C94.1826563,18.9473931 111.52875,28.1248384 122.005313,43.4971179 C123.071719,45.0645702 122.66625,47.1966803 121.100625,48.2627354 C119.532656,49.3311334 117.399844,48.9257982 116.331094,47.3606888 C107.136563,33.8651348 91.9092188,25.807633 75.5990625,25.807633 C48.444375,25.807633 26.3521875,47.8925448 26.3521875,75.0359464 C26.3521875,102.181691 48.444375,124.266603 75.5990625,124.266603 C86.8842188,124.266603 97.906875,120.356172 106.642031,113.256948 C115.257656,106.251444 121.311563,96.4648243 123.690469,85.6941538 C124.098281,83.8432011 125.931094,82.674055 127.780313,83.0840762 C129.631875,83.4894114 130.799063,85.3216203 130.39125,87.172573 C127.681875,99.4497784 120.786563,110.604697 110.973281,118.577852 C101.017031,126.670498 88.456875,131.126843 75.5990625,131.126843" id="Fill-1" fill="#4B8AFF" mask="url(#mask-2)"></path>
                </g>
                <path d="M98.3889103,84.294485 C97.3233212,84.9203844 96.1011654,85.0128468 95.0122082,84.6477388 C94.0728073,84.3371599 93.2385633,83.6851814 92.7034319,82.751074 C92.1706374,81.8145957 92.0351019,80.7595759 92.2384051,79.775681 C92.2711206,79.6192061 92.3085097,79.4722146 92.3575828,79.3228523 C92.6660428,78.3697782 93.3039942,77.5257623 94.2270373,76.9852129 C95.1477436,76.4422926 96.1946381,76.3047844 97.1644176,76.5134175 C98.2814167,76.7481298 99.2955957,77.4498957 99.9125157,78.5286239 C101.059893,80.5438303 100.375206,83.1304069 98.3889103,84.294485 M86.8613867,82.9217738 L76.6401445,88.9081222 C74.2378955,86.679541 70.8541829,85.8070752 67.6854576,86.6202702 L61.7756447,76.2360303 C64.1241468,73.7869618 65.0565373,70.2449402 64.2293037,66.9376309 L74.3804414,60.9915867 C76.7523117,63.2628428 80.1313507,64.1827253 83.3024128,63.414576 L89.2542884,73.8699409 C87.0132799,76.2763344 86.1089313,79.7021852 86.8613867,82.9217738 M74.1771382,96.8551478 C73.9808455,98.05953 73.2774632,99.1667081 72.1557906,99.8234283 C70.1694952,100.985135 67.6176899,100.295224 66.472649,98.2776464 C65.8931181,97.2629307 65.778614,96.0917402 66.0707163,95.0390912 C66.3534713,94.0101506 67.0101172,93.0902681 67.9939176,92.5141562 C68.8608771,92.0044275 69.8306566,91.8526943 70.7490261,92.0091692 C70.8962456,92.0305066 71.0434652,92.0613274 71.1883479,92.1063732 C72.2048638,92.3885021 73.1115492,93.0594473 73.679396,94.0575672 C74.1818118,94.9371455 74.3266946,95.9210404 74.1771382,96.8551478 M76.9859935,52.9663236 C77.2173385,51.8330664 77.9090367,50.799384 78.9722889,50.1758555 C80.9585843,49.0141483 83.5080528,49.7040601 84.6554305,51.7216373 C85.2723504,52.8003654 85.3611495,54.0450517 85.0036164,55.1474882 C84.6974932,56.1005622 84.0548682,56.9469489 83.1341619,57.4851276 C82.2111188,58.0280479 81.1712347,58.1679269 80.1991184,57.9640354 C80.0472252,57.9308438 79.9023425,57.8881688 79.755123,57.8431231 C78.8157221,57.5254317 77.9838149,56.8781948 77.4510203,55.9417166 C76.9182258,55.0052383 76.7780167,53.9502185 76.9859935,52.9663236 M58.9177162,70.0457904 C58.8779903,70.318436 58.8078857,70.5910816 58.7097394,70.8471313 C58.3825848,71.7314513 57.7656649,72.5090839 56.8987054,73.0140709 C55.9149049,73.5925536 54.8025795,73.713466 53.7790532,73.4455621 C52.7368324,73.1752874 51.7974315,72.4901172 51.2155638,71.4706599 C50.0705229,69.4554535 50.7528738,66.8688768 52.7391692,65.7047988 C53.7463378,65.1144619 54.8960523,65.000662 55.9312627,65.294645 C56.9477785,65.5815156 57.8568008,66.2548316 58.4199739,67.2505806 C58.9223898,68.1301589 59.074283,69.1164246 58.9177162,70.0457904 M104.714677,75.7144474 C102.522741,71.8594762 98.1271867,70.078982 94.0564496,71.0557644 L88.1092476,60.6027704 C90.9765234,57.5159484 91.6565374,52.764803 89.4599284,48.90509 C86.7842717,44.2037321 80.8347329,42.5868253 76.2008227,45.3037977 C72.3988197,47.530008 70.6438693,51.9895412 71.6066383,56.1147872 L61.3853961,62.1011356 C58.3451957,59.275105 53.7229696,58.630239 49.9630293,60.832741 C45.3291191,63.5473425 43.7354091,69.5834784 46.4110658,74.2848363 C48.5819698,78.0971326 52.9027464,79.8823684 56.929084,78.9790818 L62.9206855,89.5055716 C60.1375352,92.5947644 59.4972471,97.2818974 61.668151,101.094194 C64.3461446,105.795552 70.2956834,107.412458 74.9295936,104.697857 C78.7736594,102.445567 80.5262729,97.9101676 79.4840521,93.7446175 L89.6375266,87.7985732 C92.6753901,90.7075829 97.3607103,91.3951239 101.162713,89.1712844 C105.796624,86.454312 107.395007,80.4181762 104.714677,75.7144474" id="Fill-4" fill="#4B8AFF"></path>
            </g>
        </g>
    </g>
</svg>