<?xml version="1.0" encoding="UTF-8"?>
<svg width="150px" height="150px" xmlns="http://www.w3.org/2000/svg" viewBox="0 0 500 500"><defs><style>.cls-1{fill:#fff;}.cls-2{fill:#242828;}.cls-3{fill:#00e8b4;}</style></defs><title>Asset 84</title><g id="Layer_2" data-name="Layer 2"><g id="Layer_1-2" data-name="Layer 1"><circle class="cls-1" cx="250" cy="250" r="250"/><path class="cls-2" d="M349.91,203.06a69,69,0,0,0-2-16.76,68.16,68.16,0,0,0-66-51.3H150.09V365H286.88a67.55,67.55,0,0,0,60.35-51,69.62,69.62,0,0,0,2-16.77,68.34,68.34,0,0,0-19.46-47.6S349.91,236.08,349.91,203.06ZM206.75,186h62a17.44,17.44,0,0,1,0,34.87h-62Zm62.36,129.42H242l-34.89-34.87h62a17.44,17.44,0,0,1,0,34.87Z"/><polygon class="cls-3" points="150.09 262.78 150.09 365 252.31 365 150.09 262.78"/></g></g></svg>