<?xml version="1.0" encoding="UTF-8"?>
<svg width="132px" height="34px" xmlns="http://www.w3.org/2000/svg" viewBox="0 0 2075.92 500"><defs><style>.cls-1{fill:#242828;}.cls-2{fill:#00e8b4;}.cls-3{fill:#fff;}</style></defs><title>Asset 93</title><g id="Layer_2" data-name="Layer 2"><g id="Layer_1-2" data-name="Layer 1"><path class="cls-1" d="M711.68,348V203.46H656.43V171.71h149.5v31.75H750.68V348Z"/><path class="cls-1" d="M828.18,342.09a55.24,55.24,0,0,1-22.75-22.25q-8-14.37-8-33.88t8-33.87A54.49,54.49,0,0,1,828.18,230q14.75-7.74,34.25-7.75T896.68,230a54.49,54.49,0,0,1,22.75,22.13q8,14.37,8,33.87t-8,33.88a55.24,55.24,0,0,1-22.75,22.25Q881.94,350,862.43,350T828.18,342.09ZM889.93,286q0-17.74-7.12-26.5t-20.38-8.75q-27.49,0-27.5,35.25t27.5,35.25Q889.93,321.21,889.93,286Z"/><path class="cls-1" d="M1132.93,235q10.24,12.75,10.25,39v74h-37.75V275.21q0-12.49-3.87-18t-13.13-5.5q-10.76,0-16.75,7.5t-6,21V348h-37.75V275.21q0-12.49-3.87-18t-13.13-5.5q-10.75,0-16.75,7.5t-6,21V348H950.43V225.21h36.75v16.5a38.42,38.42,0,0,1,15.38-14.5,47.32,47.32,0,0,1,22.12-5q27.25,0,36.5,22.75a43.91,43.91,0,0,1,16.75-16.62,47.17,47.17,0,0,1,23.75-6.13Q1122.68,222.21,1132.93,235Z"/><path class="cls-1" d="M1196.43,342.09a55.19,55.19,0,0,1-22.75-22.25q-8-14.37-8-33.88t8-33.87A54.43,54.43,0,0,1,1196.43,230q14.74-7.74,34.25-7.75t34.25,7.75a54.54,54.54,0,0,1,22.75,22.13q8,14.37,8,33.87t-8,33.88a55.3,55.3,0,0,1-22.75,22.25q-14.76,7.88-34.25,7.87T1196.43,342.09ZM1258.18,286q0-17.74-7.12-26.5t-20.38-8.75q-27.51,0-27.5,35.25t27.5,35.25Q1258.18,321.21,1258.18,286Z"/><path class="cls-1" d="M1458.55,272.34q8.39,11.13,8.38,27.37,0,22.26-16.38,35.25t-45.12,13h-83.75V171.71h81.25q27.49,0,43.62,12.25t16.13,33.5a40.56,40.56,0,0,1-7.38,24.13,41.79,41.79,0,0,1-20.37,15.12Q1450.17,261.21,1458.55,272.34Zm-98.87-28.88h36.75q15,0,22.12-5.12t7.13-15.63q0-11-7.13-16.12t-22.12-5.13h-36.75Zm63.75,69.5q7-5.25,7-17t-7-17.25q-7-5.49-22.5-5.5h-41.25v45h41.25Q1416.43,318.21,1423.43,313Z"/><path class="cls-1" d="M1578.68,253.21l-21.25,2.25q-15.75,1.5-22.25,8.88t-6.5,19.62v64h-37.75V225.21h36.25V246q9.24-21.24,38.25-23.25l11-.75Z"/><path class="cls-1" d="M1589.92,166.21h40.5v35.25h-40.5ZM1591.17,348V225.21h37.75V348Z"/><path class="cls-1" d="M1782.17,171.71V348h-37.5V329.71a38.33,38.33,0,0,1-15.62,14.88,48.08,48.08,0,0,1-22.88,5.37,50,50,0,0,1-28.12-8.12,53.9,53.9,0,0,1-19.25-22.75q-6.88-14.62-6.88-33.63t6.88-33.37A52,52,0,0,1,1677.92,230q12.25-7.74,28.25-7.75a48.41,48.41,0,0,1,22.63,5.25,37.59,37.59,0,0,1,15.62,14.75v-70.5Zm-44.62,140.38q7.13-9.12,7.12-26.13t-7.12-26q-7.12-9-20.38-9t-20.5,8.88q-7.25,8.88-7.25,25.62,0,17,7.25,26.38t20.5,9.37Q1730.43,321.21,1737.55,312.09Z"/><path class="cls-1" d="M1936.42,225.21v109.5q0,29.75-17,45T1869.17,395a123,123,0,0,1-31.62-4,95.46,95.46,0,0,1-26.63-11.25l10-26q23.74,13,47.25,13,31,0,31-29.25V324a37,37,0,0,1-15.75,15,49.82,49.82,0,0,1-23.5,5.5q-16,0-28.37-7.5a51.39,51.39,0,0,1-19.38-21.37q-7-13.87-7-32.13t7-32.12a52.24,52.24,0,0,1,19.38-21.5,53,53,0,0,1,28.37-7.63,49.59,49.59,0,0,1,23.13,5.38,38.12,38.12,0,0,1,15.87,14.87V225.21Zm-44.87,82q7.37-8.49,7.37-23.75t-7.37-23.87q-7.38-8.62-20.63-8.63t-20.75,8.63q-7.5,8.63-7.5,23.87,0,15,7.5,23.63t20.75,8.62Q1884.17,315.71,1891.55,307.21Z"/><path class="cls-1" d="M2075.92,293.71h-80q1.74,14.76,9.62,21.38t22.38,6.62a59.43,59.43,0,0,0,18.87-3.12,60.64,60.64,0,0,0,17.13-8.88l10,25.25A68,68,0,0,1,2052,346a86.66,86.66,0,0,1-25.87,4q-31,0-48.88-17.12t-17.87-46.63q0-18.75,7.75-33.25a56.8,56.8,0,0,1,21.5-22.62q13.74-8.13,31.25-8.13,25.74,0,40.87,16.75t15.13,45.5Zm-72.13-38.62q-6.37,6.87-7.87,19.87h48.25q-.75-13.24-6.63-20t-16.62-6.75Q2010.17,248.21,2003.79,255.09Z"/><circle class="cls-1" cx="250" cy="250" r="250"/><polygon class="cls-2" points="280 250 305 225 240 160 240 95 373.63 225.26 280 315 280 250"/><polygon class="cls-3" points="220 250 195 275 260 340 260 405 126.37 274.74 220 185 220 250"/></g></g></svg>