<?xml version="1.0" encoding="UTF-8"?>
<svg width="30px" height="30px" viewBox="0 0 30 30" version="1.1" xmlns="http://www.w3.org/2000/svg" xmlns:xlink="http://www.w3.org/1999/xlink">
    <!-- Generator: Sketch 52.3 (67297) - http://www.bohemiancoding.com/sketch -->
    <title>Group 3</title>
    <desc>Created with Sketch.</desc>
    <defs>
        <polygon id="path-1" points="0 0.000217391304 29.8956522 0.000217391304 29.8956522 29.8971739 0 29.8971739"></polygon>
    </defs>
    <g id="Page-1" stroke="none" stroke-width="1" fill="none" fill-rule="evenodd">
        <g id="02" transform="translate(-1120.000000, -600.000000)">
            <g id="Group" transform="translate(1090.000000, 541.000000)">
                <g id="Group-3" transform="translate(30.000000, 59.000000)">
                    <mask id="mask-2" fill="white">
                        <use xlink:href="#path-1"></use>
                    </mask>
                    <g id="Clip-2"></g>
                    <path d="M14.2958696,20.5494348 C14.8663043,20.8216087 15.4719565,20.955087 16.0719565,20.955087 C16.9858696,20.955087 17.8876087,20.6446522 18.6332609,20.0403043 C18.7315217,19.9607391 18.831087,19.8746522 18.9280435,19.7855217 C19.261087,19.4803043 19.2836957,18.9633478 18.978913,18.6303043 C18.6732609,18.2972609 18.1563043,18.275087 17.8232609,18.5798696 C17.7497826,18.6468261 17.6758696,18.7107391 17.6028261,18.7694348 C16.8523913,19.3785652 15.8793478,19.4920435 14.9997826,19.072913 C14.1054348,18.6468261 13.5715217,17.8033478 13.5715217,16.8163913 L13.5715217,12.4568261 L18.4680435,12.4568261 C18.8632609,12.4568261 19.1836957,12.1363913 19.1836957,11.7411739 C19.1836957,11.3459565 18.8632609,11.0259565 18.4680435,11.0259565 L13.5715217,11.0259565 L13.5715217,9.75986957 C13.5715217,9.30856522 13.205,8.94204348 12.7536957,8.94204348 C12.3019565,8.94204348 11.9358696,9.30856522 11.9358696,9.75986957 L11.9358696,11.0259565 L10.5971739,11.0259565 C10.2019565,11.0259565 9.88195652,11.3459565 9.88195652,11.7411739 C9.88195652,12.1363913 10.2019565,12.4568261 10.5971739,12.4568261 L11.9358696,12.4568261 L11.9358696,16.8163913 C11.9358696,18.425087 12.8402174,19.8555217 14.2958696,20.5494348 M22.1367391,28.0516087 C25.6363043,26.1303043 28.1776087,22.9616087 29.2932609,19.1285652 C30.4093478,15.2959565 29.9654348,11.2581304 28.0441304,7.759 C26.1228261,4.25986957 22.9541304,1.71813043 19.1215217,0.602478261 C15.2884783,-0.513173913 11.2506522,-0.0696956522 7.75152174,1.8516087 C4.75021739,3.49943478 2.38847826,6.15117391 1.10152174,9.31726087 C-0.166304348,12.4381304 -0.346304348,15.9268261 0.595434783,19.1416087 C0.701521739,19.5042174 1.08195652,19.7116087 1.44413043,19.6055217 C1.80673913,19.499 2.01456522,19.1194348 1.90847826,18.7568261 C1.05282609,15.8372609 1.21673913,12.6676957 2.36891304,9.83247826 C3.53804348,6.95595652 5.68282609,4.54769565 8.40978261,3.05073913 C11.5884783,1.30552174 15.2571739,0.902478261 18.738913,1.9163913 C22.221087,2.92986957 25.0997826,5.23856522 26.845,8.41726087 C30.4480435,14.9794348 28.0406522,23.2494348 21.478913,26.8524783 C18.6180435,28.4233478 15.2876087,28.9116087 12.1015217,28.2276957 C11.7319565,28.149 11.368913,28.3837826 11.2893478,28.752913 C11.2097826,29.1224783 11.445,29.4859565 11.8145652,29.565087 C12.8497826,29.7872609 13.8980435,29.8972609 14.9432609,29.8972609 C17.4402174,29.8968261 19.9176087,29.2707391 22.1367391,28.0516087 M15.0671739,26.1346522 C8.90108696,26.1346522 3.88456522,21.1181304 3.88456522,14.9516087 C3.88456522,8.78508696 8.90108696,3.76856522 15.0671739,3.76856522 C18.771087,3.76856522 22.2284783,5.59856522 24.3163043,8.66378261 C24.528913,8.97595652 24.4484783,9.40117391 24.1363043,9.61421739 C23.8236957,9.82682609 23.3984783,9.74595652 23.1854348,9.43378261 C21.3528261,6.74291304 18.3184783,5.13682609 15.0671739,5.13682609 C9.65543478,5.13682609 5.2523913,9.53986957 5.2523913,14.9516087 C5.2523913,20.3633478 9.65543478,24.7663913 15.0671739,24.7663913 C17.3163043,24.7663913 19.5136957,23.9868261 21.2545652,22.5711739 C22.9719565,21.175087 24.1780435,19.2237826 24.6519565,17.0763913 C24.7336957,16.7072609 25.098913,16.4742174 25.4671739,16.5555217 C25.8363043,16.6372609 26.0693478,17.0020435 25.9880435,17.3707391 C25.4476087,19.8185652 24.0732609,22.042913 22.1176087,23.632913 C20.1336957,25.2459565 17.6297826,26.1346522 15.0671739,26.1346522" id="Fill-1" fill="#F7941D" mask="url(#mask-2)"></path>
                </g>
            </g>
        </g>
    </g>
</svg>